<?xml version="1.0" encoding="UTF-8" standalone="no"?>
<!-- Created with Inkscape (http://www.inkscape.org/) -->

<svg
   xmlns:dc="http://purl.org/dc/elements/1.1/"
   xmlns:cc="http://creativecommons.org/ns#"
   xmlns:rdf="http://www.w3.org/1999/02/22-rdf-syntax-ns#"
   xmlns:svg="http://www.w3.org/2000/svg"
   xmlns="http://www.w3.org/2000/svg"
   xmlns:sodipodi="http://sodipodi.sourceforge.net/DTD/sodipodi-0.dtd"
   xmlns:inkscape="http://www.inkscape.org/namespaces/inkscape"
   version="1.1"
   id="svg2"
   xml:space="preserve"
   width="329.51065"
   height="71.671867"
   viewBox="0 0 329.51065 71.67187"
   sodipodi:docname="dlr.svg"
   inkscape:version="0.92.2 (5c3e80d, 2017-08-06)"><metadata
     id="metadata8"><rdf:RDF><cc:Work
         rdf:about=""><dc:format>image/svg+xml</dc:format><dc:type
           rdf:resource="http://purl.org/dc/dcmitype/StillImage" /><dc:title></dc:title></cc:Work></rdf:RDF></metadata><defs
     id="defs6" /><sodipodi:namedview
     pagecolor="#ffffff"
     bordercolor="#666666"
     borderopacity="1"
     objecttolerance="10"
     gridtolerance="10"
     guidetolerance="10"
     inkscape:pageopacity="0"
     inkscape:pageshadow="2"
     inkscape:window-width="1241"
     inkscape:window-height="1376"
     id="namedview4"
     showgrid="false"
     inkscape:zoom="2.4642899"
     inkscape:cx="158.76046"
     inkscape:cy="21.887583"
     inkscape:window-x="2639"
     inkscape:window-y="27"
     inkscape:window-maximized="0"
     inkscape:current-layer="g12"
     fit-margin-top="0"
     fit-margin-left="0"
     fit-margin-right="0"
     fit-margin-bottom="0" /><g
     id="g10"
     inkscape:groupmode="layer"
     inkscape:label="ink_ext_XXXXXX"
     transform="matrix(1.3333333,0,0,-1.3333333,0,130.71253)"><g
       id="g12"
       transform="scale(0.1)"><path
         d="m 836.41,524.414 h -18.109 v 9.934 c 0,6.187 2.16,12.215 9.109,12.215 4.508,0 7.106,-1.668 9,-2.801 l 1.695,17.207 c -4.007,0.926 -9.902,1.719 -15.183,1.719 -16.418,0 -25.383,-11.165 -25.383,-27.129 v -11.145 h -15.336 v -15.168 h 15.336 v -64.598 h 20.762 v 64.598 h 18.109 v 15.168"
         style="fill:#5e5b5c;fill-opacity:1;fill-rule:nonzero;stroke:none"
         id="path14"
         inkscape:connector-curvature="0" /><path
         d="m 899.895,485.402 c 0,-10.214 -3.27,-26.476 -18.29,-26.476 -13.312,0 -13.476,13.164 -13.476,22.922 v 42.566 H 847.41 v -50.32 c 0,-17.961 8.188,-31.289 27.082,-31.289 10.875,0 19.821,4.961 26.172,12.683 h 0.332 v -10.84 h 19.645 v 79.766 h -20.746 v -39.012"
         style="fill:#5e5b5c;fill-opacity:1;fill-rule:nonzero;stroke:none"
         id="path16"
         inkscape:connector-curvature="0" /><path
         d="m 1307.57,461.086 c -2.21,-1.398 -5.73,-2.16 -9.45,-2.16 -7.9,0 -9.76,6.347 -9.76,13.164 v 37.156 h 18.42 v 15.168 h -18.42 v 22.617 l -20.79,-6.66 v -15.957 h -15.29 v -15.168 h 15.29 v -40.594 c 0,-15.769 9.02,-25.847 25.28,-25.847 6.22,0 10.98,0.625 15.34,1.843 l -0.62,16.438"
         style="fill:#5e5b5c;fill-opacity:1;fill-rule:nonzero;stroke:none"
         id="path18"
         inkscape:connector-curvature="0" /><path
         d="m 1163.59,455.488 v -10.84 h 19.67 v 79.766 h -20.76 v -39.012 c 0,-10.214 -3.26,-26.476 -18.28,-26.476 -13.27,0 -13.46,13.164 -13.46,22.922 v 42.566 h -20.73 v -50.32 c 0,-17.961 8.21,-31.289 27.09,-31.289 10.83,0 19.82,4.961 26.18,12.683 h 0.29"
         style="fill:#5e5b5c;fill-opacity:1;fill-rule:nonzero;stroke:none"
         id="path20"
         inkscape:connector-curvature="0" /><path
         d="m 1249.07,524.414 h -18.15 v 9.934 c 0,6.187 2.18,12.215 9.13,12.215 4.53,0 7.12,-1.668 9.02,-2.801 l 1.7,17.207 c -4.07,0.926 -9.94,1.719 -15.21,1.719 -16.38,0 -25.37,-11.165 -25.37,-27.129 v -11.145 h -15.31 v -15.168 h 15.31 v -64.598 h 20.73 v 64.598 h 18.15 v 15.168"
         style="fill:#5e5b5c;fill-opacity:1;fill-rule:nonzero;stroke:none"
         id="path22"
         inkscape:connector-curvature="0" /><path
         d="m 1041.28,634.387 h 0.28 v -10.84 h 19.68 v 79.766 h -20.77 V 664.25 c 0,-10.195 -3.22,-26.445 -18.25,-26.445 -13.3,0 -13.47,13.172 -13.47,22.91 v 42.598 h -20.762 v -50.344 c 0,-17.949 8.219,-31.258 27.102,-31.258 10.85,0 19.83,4.941 26.19,12.676"
         style="fill:#5e5b5c;fill-opacity:1;fill-rule:nonzero;stroke:none"
         id="path24"
         inkscape:connector-curvature="0" /><path
         d="m 1635.39,640.559 h -52.38 l 51.25,73.445 v 17.648 h -71.81 v -17.043 h 48.79 l -50.85,-73.398 v -17.664 h 75 v 17.012"
         style="fill:#5e5b5c;fill-opacity:1;fill-rule:nonzero;stroke:none"
         id="path26"
         inkscape:connector-curvature="0" /><path
         d="m 1402.02,690 c 11.63,0 16.24,-8.66 16.86,-18.738 h -35.3 c 0.91,10.664 6.83,18.738 18.44,18.738 z m -18.44,-32.996 h 55.09 c 0,27.898 -8.34,48.184 -37.9,48.184 -24.78,0 -37.05,-19.055 -37.05,-42.141 0,-26.192 15.34,-41.336 41.7,-41.336 11.17,0 19.81,2.148 27.37,6.324 v 16.899 c -7.7,-4.375 -16.39,-8.079 -26.49,-8.079 -12.83,0 -21.81,7.297 -22.72,20.149"
         style="fill:#5e5b5c;fill-opacity:1;fill-rule:nonzero;stroke:none"
         id="path28"
         inkscape:connector-curvature="0" /><path
         d="m 1296.85,662.59 c 0,10.203 3.28,26.473 18.25,26.473 13.35,0 13.47,-13.172 13.47,-22.95 v -42.566 h 20.8 v 50.301 c 0,18 -8.22,31.34 -27.13,31.34 -10.8,0 -19.8,-4.973 -25.08,-12.708 h -0.31 v 47.227 h -20.76 v -116.16 h 20.76 v 39.043"
         style="fill:#5e5b5c;fill-opacity:1;fill-rule:nonzero;stroke:none"
         id="path30"
         inkscape:connector-curvature="0" /><path
         d="m 1751.7,662.59 c 0,10.203 3.24,26.473 18.26,26.473 13.33,0 13.49,-13.172 13.49,-22.95 v -42.566 h 20.73 v 50.301 c 0,18 -8.17,31.34 -27.13,31.34 -10.78,0 -19.65,-3.567 -26.12,-12.708 h -0.31 v 10.833 h -19.66 v -79.766 h 20.74 v 39.043"
         style="fill:#5e5b5c;fill-opacity:1;fill-rule:nonzero;stroke:none"
         id="path32"
         inkscape:connector-curvature="0" /><path
         d="m 1964.96,621.711 c 10.82,0 19.78,4.941 26.15,12.676 h 0.28 v -10.84 h 19.68 v 79.766 h -20.72 V 664.25 c 0,-10.195 -3.26,-26.445 -18.29,-26.445 -13.3,0 -13.48,13.172 -13.48,22.91 v 42.598 h -20.77 v -50.344 c 0,-17.949 8.23,-31.258 27.15,-31.258"
         style="fill:#5e5b5c;fill-opacity:1;fill-rule:nonzero;stroke:none"
         id="path34"
         inkscape:connector-curvature="0" /><path
         d="m 2383.83,473.918 c 0,11.484 0,32.547 16.88,32.547 3.69,0 7.42,-0.613 9.29,-1.746 v 20.965 c -2.15,0.586 -4.33,0.586 -6.32,0.586 -12.38,0 -20.93,-12.54 -21.88,-19.942 h -0.29 v 18.086 h -18.42 v -79.766 h 20.74 v 29.27"
         style="fill:#5e5b5c;fill-opacity:1;fill-rule:nonzero;stroke:none"
         id="path36"
         inkscape:connector-curvature="0" /><path
         d="m 1243.43,621.711 c 8.51,0 14.73,0.762 20.74,2.625 l -0.92,17.168 c -3.55,-1.543 -10.06,-3.699 -15.94,-3.699 -14.55,0 -21.53,11.297 -21.53,26.015 0,15.028 8.23,25.243 21.06,25.243 6.35,0 10.39,-1.243 14.09,-2.93 l 1.85,16.387 c -5.71,1.73 -11.76,2.668 -20.13,2.668 -24.93,0 -38.52,-18.274 -38.52,-41.368 0,-24.297 13.16,-42.109 39.3,-42.109"
         style="fill:#5e5b5c;fill-opacity:1;fill-rule:nonzero;stroke:none"
         id="path38"
         inkscape:connector-curvature="0" /><path
         d="m 1901.46,652.832 c 0,11.418 0,32.5 16.84,32.5 3.72,0 7.44,-0.605 9.3,-1.719 v 20.95 c -2.13,0.625 -4.33,0.625 -6.34,0.625 -12.38,0 -20.93,-12.571 -21.84,-20 h -0.29 v 18.125 h -18.47 v -79.766 h 20.8 v 29.285"
         style="fill:#5e5b5c;fill-opacity:1;fill-rule:nonzero;stroke:none"
         id="path40"
         inkscape:connector-curvature="0" /><path
         d="m 1828.65,647.559 c 0,-15.789 8.96,-25.848 25.26,-25.848 6.16,0 10.95,0.594 15.32,1.836 l -0.66,16.414 c -2.14,-1.387 -5.7,-2.156 -9.38,-2.156 -7.92,0 -9.79,6.347 -9.79,13.172 v 37.16 h 18.43 v 15.176 h -18.43 v 22.605 l -20.75,-6.66 v -15.945 h -15.31 v -15.176 h 15.31 v -40.578"
         style="fill:#5e5b5c;fill-opacity:1;fill-rule:nonzero;stroke:none"
         id="path42"
         inkscape:connector-curvature="0" /><path
         d="m 909.039,556.934 h -17.984 v -17.942 h 17.984 v 17.942"
         style="fill:#5e5b5c;fill-opacity:1;fill-rule:nonzero;stroke:none"
         id="path44"
         inkscape:connector-curvature="0" /><path
         d="m 830.645,640.559 h -12.059 v 74.05 h 12.059 c 18.125,0 35.609,-13.464 35.609,-37 0,-23.554 -17.484,-37.05 -35.609,-37.05 z m -4.176,91.093 H 796.875 V 623.547 h 29.594 c 33.136,0 62.41,11.141 62.41,54.062 0,42.879 -29.274,54.043 -62.41,54.043"
         style="fill:#5e5b5c;fill-opacity:1;fill-rule:nonzero;stroke:none"
         id="path46"
         inkscape:connector-curvature="0" /><path
         d="m 859.164,538.992 h 17.981 v 17.942 h -17.981 v -17.942"
         style="fill:#5e5b5c;fill-opacity:1;fill-rule:nonzero;stroke:none"
         id="path48"
         inkscape:connector-curvature="0" /><path
         d="m 1087.56,647.559 c 0,-15.789 8.98,-25.848 25.22,-25.848 6.19,0 11,0.594 15.36,1.836 l -0.65,16.414 c -2.13,-1.387 -5.69,-2.156 -9.42,-2.156 -7.88,0 -9.76,6.347 -9.76,13.172 v 37.16 h 18.41 v 15.176 h -18.41 v 22.605 l -20.75,-6.66 v -15.945 h -15.32 v -15.176 h 15.32 v -40.578"
         style="fill:#5e5b5c;fill-opacity:1;fill-rule:nonzero;stroke:none"
         id="path50"
         inkscape:connector-curvature="0" /><path
         d="m 1173.96,646.621 c 0,-7.742 -8.4,-9.766 -13.65,-9.766 -7.12,0 -13.91,2.024 -20.41,5.286 l -1.24,-17.043 c 7.57,-2.024 15.63,-3.387 23.53,-3.387 16.87,0 33.42,7.402 33.42,25.996 0,28.809 -36.07,20.77 -36.07,33.477 0,6.777 6.66,8.816 12.23,8.816 7.59,0 12.22,-1.238 18.58,-3.418 l 1.37,15.645 c -6.47,1.386 -12.83,2.961 -22.58,2.961 -16.24,0 -31.25,-7.61 -31.25,-24.817 0,-28.769 36.07,-18.094 36.07,-33.75"
         style="fill:#5e5b5c;fill-opacity:1;fill-rule:nonzero;stroke:none"
         id="path52"
         inkscape:connector-curvature="0" /><path
         d="M 1039.57,552.781 V 444.648 h 63.67 v 17.051 h -41.96 v 91.082 h -21.71"
         style="fill:#5e5b5c;fill-opacity:1;fill-rule:nonzero;stroke:none"
         id="path54"
         inkscape:connector-curvature="0" /><path
         d="m 958.434,506.328 h -0.309 v 18.086 h -18.43 v -79.766 h 20.774 v 29.27 c 0,11.484 0,32.547 16.844,32.547 3.75,0 7.468,-0.613 9.296,-1.746 v 20.965 c -2.152,0.586 -4.32,0.586 -6.332,0.586 -12.406,0 -20.925,-12.54 -21.843,-19.942"
         style="fill:#5e5b5c;fill-opacity:1;fill-rule:nonzero;stroke:none"
         id="path56"
         inkscape:connector-curvature="0" /><path
         d="m 938.121,690 c 11.598,0 16.25,-8.66 16.875,-18.738 h -35.308 c 0.953,10.664 6.82,18.738 18.433,18.738 z m -18.433,-32.996 h 55.152 c 0,27.898 -8.36,48.184 -37.969,48.184 -24.769,0 -37.012,-19.055 -37.012,-42.141 0,-26.192 15.313,-41.336 41.68,-41.336 11.137,0 19.816,2.148 27.43,6.324 v 16.899 c -7.774,-4.375 -16.434,-8.079 -26.504,-8.079 -12.86,0 -21.824,7.297 -22.777,20.149"
         style="fill:#5e5b5c;fill-opacity:1;fill-rule:nonzero;stroke:none"
         id="path58"
         inkscape:connector-curvature="0" /><path
         d="m 1313.76,477.805 h 40.7 v 17.031 h -40.7 v -17.031"
         style="fill:#5e5b5c;fill-opacity:1;fill-rule:nonzero;stroke:none"
         id="path60"
         inkscape:connector-curvature="0" /><path
         d="m 2228.37,465.098 c -3.29,-4.325 -8.22,-7.129 -14.56,-7.129 -7.45,0 -13.15,2.949 -13.15,9.773 0,12.238 13.77,13.774 23.07,13.774 h 8.98 c 0,-6.196 -0.96,-11.914 -4.34,-16.418 z m 23.52,-2.637 c -0.17,5.918 -0.31,11.953 -0.31,19.98 v 10.235 c 0,23.535 -10.09,33.594 -34.34,33.594 -8.89,0 -19.68,-2.313 -27.75,-6.043 l 0.59,-17.778 c 6.99,5.266 15.81,8.664 24.65,8.664 12.26,0 17.98,-4.343 17.98,-17.175 h -11.46 c -8.67,0 -18.96,-0.825 -26.79,-4.668 -7.92,-3.868 -13.63,-10.832 -13.63,-22.778 0,-15.164 13.79,-23.687 27.92,-23.687 9.4,0 19.78,4.961 24.52,13.789 h 0.36 c 0.12,-2.461 0.12,-7.735 0.94,-11.946 h 18.29 c -0.53,6.204 -0.81,11.79 -0.97,17.813"
         style="fill:#5e5b5c;fill-opacity:1;fill-rule:nonzero;stroke:none"
         id="path62"
         inkscape:connector-curvature="0" /><path
         d="m 2138.38,444.648 h 20.78 v 64.598 h 18.11 v 15.168 h -18.11 v 9.934 c 0,6.187 2.17,12.215 9.13,12.215 4.52,0 7.1,-1.668 8.98,-2.801 l 1.7,17.207 c -4.03,0.926 -9.92,1.719 -15.2,1.719 -16.39,0 -25.39,-11.165 -25.39,-27.129 v -11.145 h -15.31 v -15.168 h 15.31 v -64.598"
         style="fill:#5e5b5c;fill-opacity:1;fill-rule:nonzero;stroke:none"
         id="path64"
         inkscape:connector-curvature="0" /><path
         d="m 2088.2,526.27 c -9.74,0 -20.1,-4.473 -24.94,-14.075 -4.48,9.887 -12.38,14.075 -23.49,14.075 -7.75,0 -17.24,-3.223 -23.7,-12.989 h -0.29 v 11.133 h -19.36 v -79.766 h 20.69 v 38.743 c 0,10.379 1.73,26.777 15.48,26.777 11.97,0 11.97,-10.5 11.97,-17.941 v -47.579 h 20.73 v 38.743 c 0,10.379 1.73,26.777 15.5,26.777 11.9,0 11.9,-10.5 11.9,-17.941 v -47.579 h 20.79 v 50.332 c 0,17.825 -5.6,31.29 -25.28,31.29"
         style="fill:#5e5b5c;fill-opacity:1;fill-rule:nonzero;stroke:none"
         id="path66"
         inkscape:connector-curvature="0" /><path
         d="m 2322.5,487.227 v -42.579 h 20.77 v 50.332 c 0,17.981 -8.19,31.29 -27.11,31.29 -10.84,0 -19.81,-4.942 -25.06,-12.684 h -0.29 v 47.246 h -20.82 V 444.648 h 20.82 v 39.051 c 0,10.239 3.24,26.469 18.23,26.469 13.34,0 13.46,-13.156 13.46,-22.941"
         style="fill:#5e5b5c;fill-opacity:1;fill-rule:nonzero;stroke:none"
         id="path68"
         inkscape:connector-curvature="0" /><path
         d="m 2125.82,623.547 h 20.71 v 50.301 c 0,17.851 -5.55,31.34 -25.23,31.34 -9.74,0 -20.11,-4.524 -24.92,-14.122 -4.44,9.903 -12.41,14.122 -23.51,14.122 -7.77,0 -17.2,-3.286 -23.71,-13.047 h -0.27 v 11.172 h -19.4 v -79.766 h 20.74 v 38.73 c 0,10.371 1.76,26.786 15.51,26.786 11.94,0 11.94,-10.536 11.94,-17.969 v -47.547 h 20.72 v 38.73 c 0,10.371 1.74,26.786 15.51,26.786 11.91,0 11.91,-10.536 11.91,-17.969 v -47.547"
         style="fill:#5e5b5c;fill-opacity:1;fill-rule:nonzero;stroke:none"
         id="path70"
         inkscape:connector-curvature="0" /><path
         d="m 2471.33,444.648 -0.67,16.438 c -2.14,-1.398 -5.67,-2.16 -9.43,-2.16 -7.84,0 -9.72,6.347 -9.72,13.164 v 37.156 h 18.43 v 15.168 h -18.43 v 22.617 l -20.74,-6.66 v -15.957 h -15.37 v -15.168 h 15.37 v -40.594 c 0,-15.769 8.97,-25.847 25.21,-25.847 6.23,0 11.02,0.625 15.35,1.843"
         style="fill:#5e5b5c;fill-opacity:1;fill-rule:nonzero;stroke:none"
         id="path72"
         inkscape:connector-curvature="0" /><path
         d="m 1628.92,458.926 c -13.65,0 -17.56,14.851 -17.56,25.851 0,10.703 3.76,25.391 17.23,25.391 13.31,0 18.57,-14.23 18.57,-25.391 0,-11.308 -4.52,-25.851 -18.24,-25.851 z m 18.34,101.906 v -45.664 h -0.27 c -6.17,7.574 -13.49,11.102 -23.83,11.102 -24.5,0 -33.44,-19.5 -33.44,-41.493 0,-21.847 8.94,-41.972 33.44,-41.972 9.76,0 18.27,3.093 24.45,10.855 h 0.32 v -9.012 h 20.15 v 116.184 h -20.82"
         style="fill:#5e5b5c;fill-opacity:1;fill-rule:nonzero;stroke:none"
         id="path74"
         inkscape:connector-curvature="0" /><path
         d="m 1463.21,455.488 v -10.84 h 19.64 v 79.766 h -20.75 v -39.012 c 0,-10.214 -3.24,-26.476 -18.24,-26.476 -13.33,0 -13.49,13.164 -13.49,22.922 v 42.566 h -20.75 v -50.32 c 0,-17.961 8.21,-31.289 27.07,-31.289 10.86,0 19.82,4.961 26.21,12.683 h 0.31"
         style="fill:#5e5b5c;fill-opacity:1;fill-rule:nonzero;stroke:none"
         id="path76"
         inkscape:connector-curvature="0" /><path
         d="m 1469.66,681.184 c 0,6.777 6.7,8.816 12.27,8.816 7.56,0 12.22,-1.238 18.53,-3.418 l 1.44,15.645 c -6.49,1.386 -12.91,2.961 -22.59,2.961 -16.28,0 -31.31,-7.61 -31.31,-24.817 0,-28.769 36.08,-18.094 36.08,-33.75 0,-7.742 -8.38,-9.766 -13.62,-9.766 -7.13,0 -13.95,2.024 -20.46,5.286 l -1.26,-17.043 c 7.61,-2.024 15.65,-3.387 23.56,-3.387 16.89,0 33.45,7.402 33.45,25.996 0,28.809 -36.09,20.77 -36.09,33.477"
         style="fill:#5e5b5c;fill-opacity:1;fill-rule:nonzero;stroke:none"
         id="path78"
         inkscape:connector-curvature="0" /><path
         d="m 1522.99,483.699 c 0,10.239 3.23,26.469 18.26,26.469 13.35,0 13.46,-13.156 13.46,-22.941 v -42.579 h 20.77 v 50.332 c 0,17.981 -8.22,31.29 -27.12,31.29 -10.86,0 -19.68,-3.528 -26.18,-12.684 h -0.29 v 10.828 h -19.65 v -79.766 h 20.75 v 39.051"
         style="fill:#5e5b5c;fill-opacity:1;fill-rule:nonzero;stroke:none"
         id="path80"
         inkscape:connector-curvature="0" /><path
         d="m 1957.37,455.488 h 0.32 v -10.84 h 19.65 v 79.766 h -20.75 v -39.012 c 0,-10.214 -3.27,-26.476 -18.27,-26.476 -13.32,0 -13.46,13.164 -13.46,22.922 v 42.566 h -20.78 v -50.32 c 0,-17.961 8.24,-31.289 27.08,-31.289 10.89,0 19.82,4.961 26.21,12.683"
         style="fill:#5e5b5c;fill-opacity:1;fill-rule:nonzero;stroke:none"
         id="path82"
         inkscape:connector-curvature="0" /><path
         d="m 1865.08,465.098 c -3.27,-4.325 -8.18,-7.129 -14.53,-7.129 -7.48,0 -13.2,2.949 -13.2,9.773 0,12.238 13.8,13.774 23.09,13.774 h 8.94 c 0,-6.196 -0.92,-11.914 -4.3,-16.418 z m 23.53,-2.637 c -0.15,5.918 -0.33,11.953 -0.33,19.98 v 10.235 c 0,23.535 -10.06,33.594 -34.37,33.594 -8.8,0 -19.66,-2.313 -27.72,-6.043 l 0.63,-17.778 c 7,5.266 15.8,8.664 24.64,8.664 12.21,0 17.92,-4.343 17.92,-17.175 h -11.44 c -8.65,0 -18.88,-0.825 -26.81,-4.668 -7.86,-3.868 -13.63,-10.832 -13.63,-22.778 0,-15.164 13.81,-23.687 27.88,-23.687 9.42,0 19.83,4.961 24.65,13.789 h 0.29 c 0.16,-2.461 0.16,-7.735 0.92,-11.946 h 18.31 c -0.49,6.204 -0.78,11.79 -0.94,17.813"
         style="fill:#5e5b5c;fill-opacity:1;fill-rule:nonzero;stroke:none"
         id="path84"
         inkscape:connector-curvature="0" /><path
         d="m 1758.86,506.602 h -7.14 v 29.132 h 7.14 c 10.85,0 22.92,-1.078 22.92,-14.101 0,-13.469 -12.29,-15.031 -22.92,-15.031 z m 34.66,-19.676 c -2.19,4.804 -5.6,10.711 -11.51,11.172 v 0.3 c 13.84,1.868 22.33,12.395 22.33,25.11 0,30.027 -27.68,29.273 -50.9,29.273 h -23.42 V 444.648 h 21.7 v 44.93 h 6.92 c 9.15,0 11.98,-3.113 15.08,-11.14 l 12.97,-33.79 h 24.16 l -17.33,42.278"
         style="fill:#5e5b5c;fill-opacity:1;fill-rule:nonzero;stroke:none"
         id="path86"
         inkscape:connector-curvature="0" /><path
         d="m 1680.62,690 c 11.61,0 16.25,-8.66 16.85,-18.738 h -35.33 c 0.94,10.664 6.82,18.738 18.48,18.738 z m -18.48,-32.996 h 55.15 c 0,27.898 -8.32,48.184 -37.94,48.184 -24.77,0 -37.05,-19.055 -37.05,-42.141 0,-26.192 15.37,-41.336 41.73,-41.336 11.15,0 19.78,2.148 27.43,6.324 v 16.899 c -7.81,-4.375 -16.46,-8.079 -26.53,-8.079 -12.85,0 -21.85,7.297 -22.79,20.149"
         style="fill:#5e5b5c;fill-opacity:1;fill-rule:nonzero;stroke:none"
         id="path88"
         inkscape:connector-curvature="0" /><path
         d="m 576.035,505.977 h 7.149 c 10.644,0 22.89,1.543 22.89,15 0,12.988 -12.082,14.093 -22.89,14.093 h -7.149 z m -21.664,46.125 h 23.356 c 23.218,0 50.941,0.761 50.941,-29.27 0,-12.676 -8.523,-23.215 -22.289,-25.059 v -0.312 c 5.883,-0.449 9.285,-6.348 11.453,-11.133 l 17.32,-42.265 H 611.02 l -12.997,33.75 c -3.105,8.046 -5.906,11.125 -15.015,11.125 h -6.973 v -44.875 h -21.664 z m -83.039,0 h 21.691 v -91.016 h 41.922 v -17.023 h -63.613 z m -93.191,-91.016 h 12.054 c 18.102,0 35.606,13.465 35.606,37 0,23.516 -17.504,36.984 -35.606,36.984 h -12.054 z m -21.676,91.016 h 29.558 c 33.118,0 62.368,-11.172 62.368,-54.016 0,-42.879 -29.25,-54.023 -62.368,-54.023 H 356.465 Z M 491.5,694.98 h -98.812 l 71.542,71.641 h 98.844 z m -150.273,0 H 239.789 l 71.535,71.641 H 412.805 Z M 214.184,567.93 v 90.597 h 90.379 z M 87.8242,694.98 159.375,766.621 H 259.691 L 188.098,694.98 Z M 437.086,892.363 V 803.035 H 347.77 Z m 36.348,-89.218 V 980.344 L 296.488,803.145 H 144.652 L 0,658.469 178.113,658.457 V 480.813 L 355.852,658.527 H 506.355 L 650.906,803.145 H 473.434 v 0"
         style="fill:#5e5b5c;fill-opacity:1;fill-rule:nonzero;stroke:none"
         id="path90"
         inkscape:connector-curvature="0" /></g></g></svg>
